<?xml version="1.0" encoding="utf-8"?>
<!-- Generator: Adobe Illustrator 27.0.0, SVG Export Plug-In . SVG Version: 6.00 Build 0)  -->
<svg version="1.1" id="图层_1" xmlns="http://www.w3.org/2000/svg" xmlns:xlink="http://www.w3.org/1999/xlink" x="0px" y="0px"
	 viewBox="0 0 41 41" style="enable-background:new 0 0 41 41;" xml:space="preserve">
<style type="text/css">
	.st0{fill:#10A37F;}
</style>
<path class="st0" d="M37.5,16.9c0.4-1.3,0.6-2.8,0.5-4.2s-0.6-2.8-1.3-4C35.6,6.8,34,5.4,32,4.5s-4.1-1.1-6.2-0.6
	c-0.9-1.1-2.1-1.9-3.4-2.5s-2.7-0.9-4.1-0.9c-2.1,0-4.2,0.7-5.9,1.9c-1.7,1.3-3,3-3.7,5.1C7.3,7.8,6,8.3,4.8,9.2
	C3.7,10,2.7,11.1,2,12.3c-1.1,1.8-1.5,4-1.3,6.1s1.1,4.1,2.5,5.7c-0.4,1.3-0.6,2.8-0.5,4.2c0.1,1.4,0.6,2.8,1.3,4
	c1.1,1.9,2.7,3.3,4.6,4.2c2,0.9,4.1,1.1,6.2,0.6c0.9,1.1,2.1,1.9,3.4,2.5c1.3,0.6,2.7,0.9,4.1,0.9c2.1,0,4.2-0.7,5.9-1.9
	c1.7-1.3,3-3,3.7-5.1c1.4-0.3,2.7-0.9,3.9-1.7c1.1-0.8,2.1-1.9,2.8-3.1c1.1-1.8,1.5-4,1.3-6.1C39.9,20.5,39,18.5,37.5,16.9z
	 M22.5,37.9c-1.8,0-3.5-0.6-4.8-1.7c0.1,0,0.2-0.1,0.2-0.1l8-4.6c0.2-0.1,0.4-0.3,0.5-0.5s0.2-0.4,0.2-0.7V19.1L30,21l0,0
	c0,0,0,0,0,0.1v9.3c0,2-0.8,3.9-2.2,5.3S24.5,37.9,22.5,37.9z M6.4,31c-0.9-1.5-1.2-3.3-0.9-5c0.1,0,0.2,0.1,0.2,0.1l8,4.6
	c0.2,0.1,0.4,0.2,0.7,0.2c0.2,0,0.5-0.1,0.7-0.2l9.7-5.6V29c0,0,0,0,0,0.1l0,0l-8.1,4.6c-1.7,1-3.8,1.3-5.7,0.7
	C9,34,7.4,32.7,6.4,31z M4.3,13.6c0.9-1.5,2.3-2.7,3.9-3.3c0,0.1,0,0.2,0,0.3v9.2c0,0.2,0.1,0.5,0.2,0.7c0.1,0.2,0.3,0.4,0.5,0.5
	l9.7,5.6l-3.4,1.9c0,0,0,0-0.1,0c0,0,0,0-0.1,0l-8-4.6c-1.7-1-3-2.6-3.5-4.6C3,17.4,3.3,15.3,4.3,13.6z M32,20.1l-9.7-5.6l3.4-1.9
	c0,0,0,0,0.1,0c0,0,0,0,0.1,0l8.1,4.6c1.2,0.7,2.2,1.8,2.9,3c0.7,1.3,0.9,2.7,0.8,4.1c-0.1,1.4-0.6,2.8-1.5,3.9s-2,2-3.4,2.5
	c0-0.1,0-0.2,0-0.3v-9.2c0-0.2-0.1-0.5-0.2-0.7S32.2,20.2,32,20.1z M35.3,15c-0.1,0-0.2-0.1-0.2-0.1l-8-4.6
	c-0.2-0.1-0.4-0.2-0.7-0.2c-0.2,0-0.5,0.1-0.7,0.2L16,15.9V12c0,0,0,0,0-0.1l0,0l8.1-4.6c1.2-0.7,2.6-1.1,4.1-1
	c1.4,0.1,2.8,0.5,4,1.3s2.1,1.9,2.6,3.3C35.4,12.2,35.5,13.6,35.3,15z M14.2,21.9L10.9,20l0,0c0,0,0,0,0-0.1v-9.3
	c0-1.4,0.4-2.8,1.2-4s1.9-2.2,3.1-2.8s2.7-0.8,4.1-0.6C20.7,3.4,22,4,23.1,4.9C23,4.9,22.9,5,22.9,5l-8,4.6
	c-0.2,0.1-0.4,0.3-0.5,0.5s-0.2,0.4-0.2,0.7V21.9z M16.1,18l4.3-2.5l4.3,2.5v5l-4.3,2.5L16.1,23V18z"/>
</svg>
